# Blender v2.74 (sub 0) OBJ File: ''
# www.blender.org
o bunny_with_normals
v 0.020286 1.262103 -0.418402
v -0.023041 1.261883 0.851695
v 0.036612 0.245503 -0.676235
v -0.793422 -0.148760 0.850719
v -1.427134 1.640318 1.015126
v 0.225414 -0.276224 0.574788
v -0.644446 -0.318143 0.261360
v -0.557134 0.399649 0.787418
v -1.830303 2.037836 0.290722
v -0.238768 1.462981 0.690091
v -1.147384 1.123892 -0.392322
v -1.042216 -0.061512 0.361201
v 0.994488 0.116923 -0.135927
v -0.593112 0.085420 0.721140
v 1.068174 0.249918 0.595098
v -1.400768 -0.184241 -0.078308
v -0.593355 -0.220720 -0.368286
v 0.719595 0.086776 -0.150119
v -1.704269 1.474481 -0.088075
v -1.776899 1.186960 0.158815
v -1.239560 2.127248 0.124242
v -1.057003 0.800734 0.913043
v -1.178439 -0.094267 0.902992
v 1.138680 -0.000933 0.400572
v -0.648739 -0.314062 -0.445149
v -0.067063 -0.301974 0.927497
v -0.004297 -0.311502 0.176060
v 0.718745 0.288588 0.752650
v -0.210896 2.270018 -0.313157
v -1.236459 2.322256 -0.840345
v -0.217765 2.433412 -0.525755
v -0.921892 -0.316591 0.115454
v -1.392561 2.356278 -0.409776
v -0.516672 -0.234899 0.221702
v 0.415099 0.103575 -0.544571
v 0.473610 -0.055164 -0.409661
v 0.085962 0.745748 1.129125
v -0.427128 2.723670 -0.304042
v 0.584004 -0.175278 0.582325
v -1.244849 -0.309563 0.411434
v -1.288632 1.393246 -0.198403
v -1.358711 2.099609 -1.081902
v -0.954539 0.016523 0.752528
v -1.631610 0.505826 -0.046801
v -1.289509 1.222663 0.755600
v -1.518356 0.808869 -0.309136
v -1.150570 2.078009 0.640572
v 0.061417 1.653684 0.432126
v -1.191552 -0.023590 0.169308
v -0.520020 -0.279346 1.083636
v -1.164374 0.161501 0.075170
v -1.873514 1.412853 0.730415
v -0.047007 0.860096 -0.727195
v -0.544663 0.616421 -0.784934
v -0.888226 -0.054079 -0.221742
v 0.428844 1.102919 -0.388554
v 0.512684 0.616650 0.954367
v -0.408372 1.382047 -0.273132
v 0.914199 0.853643 0.094693
v -1.092972 1.904978 -0.034054
v 1.245110 0.339736 0.215732
v -0.969639 -0.321022 -0.272155
v -0.987913 1.861112 0.127144
v 0.255741 0.170743 1.027511
v -1.210354 0.527087 -0.397718
v -1.055359 0.217262 0.586184
v -1.687612 1.315545 0.958982
v -1.912779 1.456515 0.345549
v -1.473461 2.126971 0.048487
v -0.783360 2.217135 -0.275249
v -0.095450 0.496651 1.171960
v -1.717111 1.205138 0.844521
v 0.534866 -0.298189 0.431497
v -0.765505 -0.296571 0.844822
v -1.320735 -0.302454 0.830376
v -1.130595 1.819584 0.608240
v -1.273668 1.860722 -0.172772
v -1.523048 2.605474 -1.036849
v 0.366070 -0.024578 0.853476
v 0.942961 0.503727 0.369258
v -1.485722 0.774841 0.834478
v 0.912303 0.413238 0.047876
v -1.629306 1.230391 -0.060504
v -0.623419 1.427515 0.563723
v -0.415545 0.871110 -0.722992
v 0.562855 1.445812 0.435439
v -1.332120 -0.325172 -0.166435
v 0.424995 0.803913 -0.518968
v 1.123269 0.385984 0.040115
v -1.093233 -0.015246 -0.113730
v -0.704909 2.474326 -0.009752
v -0.644612 0.051362 -0.201974
v -1.575846 1.167206 0.660641
v 0.019844 0.001378 -0.618470
v -0.447038 -0.213160 0.747670
v -1.543877 2.005087 -0.114772
v -0.543620 0.025734 -0.490359
v 0.187732 -0.258119 -0.236748
v -1.007116 0.107088 0.304240
v -0.274004 2.735110 -0.540821
v -1.375011 0.402958 0.716312
v -1.081609 0.944601 -0.447903
v -1.466595 1.998207 -0.788394
v -1.814179 1.756054 0.330695
v -0.560107 1.537014 0.194250
v -0.592398 0.854684 0.872097
v -0.373107 0.026687 0.980220
v -0.721707 0.738281 -0.469136
v -1.777566 1.692792 0.068137
v -0.848467 -0.316599 -0.636320
v 0.766855 1.227645 0.078561
v 0.087028 -0.146674 0.901266
v 0.547896 0.466177 -0.480386
v 0.150854 0.494069 -0.682739
v -0.773538 2.249219 -0.008545
v -0.018008 0.083432 1.079180
v -1.011962 1.334090 0.654477
v -0.161420 1.037973 0.890878
v -1.179860 1.477206 0.832603
v -0.324412 -0.118979 -0.556383
v -1.447420 1.842280 -0.151502
v -0.739848 1.051527 0.822482
v -1.689314 0.550291 0.404373
v -0.345347 0.315179 -0.768431
v -1.029014 2.052044 0.254123
v -1.326653 2.646311 -1.207085
v -1.817046 0.914891 0.386253
v 0.681086 1.148548 -0.208636
v -1.222474 2.350139 -1.241210
v -1.403257 2.143512 0.466692
v -0.473034 0.658650 1.119354
v 0.156779 1.655881 0.065428
v 0.427954 0.209413 0.933379
v -0.899380 1.490979 -0.237530
v 0.814855 0.788041 -0.220701
v 0.713726 0.814513 0.785787
v -1.466769 -0.272328 0.152161
v 0.274180 -0.301256 -0.431609
v -0.719392 0.498528 -0.379203
v 0.394924 -0.308027 -0.045189
v -0.201839 1.021692 -0.497812
v -1.356595 1.359289 1.079768
v -0.320474 0.876385 1.115650
v 0.420467 0.899539 0.947540
v -1.666206 1.603428 1.036348
v -0.446256 2.199873 -0.069649
v 0.738924 -0.030249 0.664067
v -1.722793 0.789777 -0.071097
v -0.065907 0.298449 1.130875
v -0.098243 -0.228822 0.239104
v -1.251161 1.991902 -0.050131
v 0.352794 1.422429 -0.219109
v -0.346537 0.264710 1.047791
v -0.105404 1.534012 -0.160568
v -0.886784 0.444003 0.833955
v 0.837667 0.516677 -0.153308
v 0.294570 1.481447 0.652175
v -1.428819 2.302160 -0.906371
v 0.346557 -0.275890 0.851224
v -1.395921 0.263317 0.002958
v 0.242349 0.574075 1.093823
v 0.810421 1.050584 0.508678
v -1.391594 0.221376 0.304549
v 1.057200 -0.077883 0.089696
v -0.875046 1.575943 0.382528
v -1.783114 1.874066 0.700141
v -0.691207 1.219132 -0.400426
v -1.600390 2.413171 -0.804288
v -0.803753 0.815416 0.865483
v -0.745829 -0.110043 -0.586909
v 0.102708 1.021034 0.975049
v -1.299695 -0.139633 0.574847
v -1.598710 1.956548 0.846059
v 0.539828 1.175675 0.746581
v -0.945250 0.352252 -0.308492
v -0.988123 1.591106 -0.072095
vn 0.559100 0.747600 0.358600
vn 0.433600 0.657800 -0.615900
vn 0.991000 -0.133500 0.006600
vn 0.351300 -0.009800 0.936200
vn 0.205700 0.234500 0.950100
vn 0.002300 -0.207000 0.978300
vn 0.325200 -0.311600 0.892800
vn 0.293700 0.299400 0.907800
vn -0.490000 -0.373900 0.787500
vn -0.064500 0.976200 -0.207300
vn -0.413000 -0.198000 -0.889000
vn 0.374700 0.110400 -0.920600
vn -0.124600 0.635700 0.761800
vn -0.259200 0.557000 0.789000
vn 0.068000 0.709100 0.701900
vn -0.344500 0.082800 0.935100
vn 0.041000 -0.412100 0.910200
vn -0.520900 -0.240300 0.819100
vn 0.756300 0.016800 0.654000
vn 0.191200 -0.237400 0.952400
vn 0.002500 0.998200 -0.060200
vn -0.174500 0.731000 0.659700
vn 0.040200 0.961900 0.270300
vn -0.143100 -0.987800 0.062100
vn -0.457500 -0.885400 -0.082300
vn -0.236100 -0.971300 0.030100
vn -0.933300 0.151900 -0.325400
vn -0.815100 0.572100 -0.091500
vn -0.189400 0.980700 -0.049700
vn -0.289800 -0.400400 -0.869300
vn -0.187100 -0.443300 -0.876600
vn -0.497300 -0.791900 -0.354400
vn 0.360100 0.393800 -0.845800
vn 0.813700 0.144200 -0.563200
vn 0.444800 0.279600 -0.850900
vn 0.516900 -0.147300 -0.843300
vn 0.044600 0.827600 -0.559500
vn 0.967200 0.236900 0.091400
vn -0.421500 0.497900 0.757900
vn -0.451100 -0.217600 0.865500
vn -0.083300 -0.263300 0.961100
vn 0.190300 -0.873600 0.448000
vn 0.801900 -0.582800 -0.131800
vn 0.073700 -0.997100 -0.018900
vn -0.866600 -0.264400 -0.423200
vn -0.654500 -0.680100 -0.330400
vn -0.275100 0.310500 -0.909900
vn -0.251700 0.092000 -0.963400
vn 0.326000 -0.929000 -0.174900
vn 0.671600 0.457300 -0.582900
vn 0.377900 0.715700 -0.587300
vn 0.800800 0.576200 -0.163700
vn -0.615100 0.205800 -0.761100
vn -0.515800 0.052400 -0.855100
vn -0.145800 -0.262700 -0.953800
vn -0.038000 0.621000 -0.782900
vn 0.244500 0.891900 0.380500
vn -0.580600 0.713800 -0.391600
vn -0.978500 0.005200 0.206400
vn -0.684800 -0.013700 -0.728600
vn -0.904800 -0.086000 -0.417200
vn -0.837800 0.508900 0.197900
vn -0.378200 0.502000 0.777800
vn 0.438400 0.713200 -0.546900
vn 0.058300 0.938300 0.340800
vn -0.768500 -0.519800 -0.373000
vn -0.994400 0.064100 -0.083600
vn -0.085400 -0.717000 -0.691800
vn -0.061100 -0.998100 0.006300
vn 0.069700 -0.970100 -0.232500
vn 0.597400 -0.190500 -0.779000
vn 0.281300 0.696000 0.660600
vn 0.233700 0.188500 0.953800
vn -0.229000 0.266900 -0.936100
vn 0.117800 0.734000 -0.668900
vn -0.057700 0.983600 0.171100
vn 0.609800 -0.037300 -0.791700
vn 0.350400 -0.056700 -0.934900
vn 0.301100 -0.815000 -0.495200
vn 0.121200 -0.972100 0.200900
vn -0.519100 -0.438200 -0.733800
vn 0.574500 -0.642100 0.507600
vn 0.325500 -0.692200 0.644100
vn 0.273100 -0.949900 0.151900
vn 0.246600 -0.948300 -0.200000
vn -0.991900 -0.056300 -0.114100
vn -0.990500 0.121100 -0.064900
vn 0.023300 0.764000 -0.644700
vn 0.729500 -0.142600 0.669000
vn 0.536500 0.012500 0.843800
vn 0.503900 -0.220600 0.835100
vn 0.597100 0.643400 0.479100
vn -0.262300 0.707300 0.656500
vn -0.726800 -0.685300 0.046600
vn -0.127000 -0.861700 0.491300
vn -0.717600 -0.488800 0.496100
vn -0.772800 -0.586000 -0.243700
vn -0.905300 -0.299400 0.301300
vn -0.514400 -0.847400 0.131600
vn 0.701600 -0.036700 0.711600
vn 0.854200 -0.504500 0.126100
vn 0.594500 0.241400 0.767000
vn -0.403500 -0.363500 -0.839700
vn -0.664200 -0.056100 -0.745400
vn 0.367500 0.392200 0.843300
vn -0.073900 0.809000 0.583200
vn 0.384500 -0.298000 0.873700
vn 0.210800 -0.227700 0.950600
vn -0.306400 -0.192300 0.932300
vn 0.181900 0.955600 -0.231700
vn -0.486800 -0.559900 -0.670500
vn -0.469000 0.301700 -0.830100
vn -0.435200 -0.743300 -0.508100
vn -0.432300 -0.608800 0.665200
vn -0.699500 -0.547900 0.458800
vn 0.495000 -0.216700 -0.841400
vn 0.863900 -0.104500 -0.492600
vn 0.505900 -0.250600 -0.825400
vn -0.616700 -0.001500 0.787200
vn 0.065300 -0.092600 0.993600
vn 0.480000 0.502600 0.719000
vn -0.039500 0.011800 0.999200
vn -0.513200 -0.095500 0.853000
vn -0.529200 -0.332800 -0.780500
vn -0.413500 0.070000 -0.907800
vn 0.674500 0.654400 -0.341600
vn -0.827500 0.527000 -0.193600
vn 0.234900 -0.675000 -0.699400
vn 0.010000 -0.190900 -0.981600
vn -0.218100 0.897500 -0.383300
vn 0.059000 0.473300 -0.878900
vn 0.716000 -0.451500 -0.532400
vn -0.361200 0.577700 -0.732000
vn -0.554300 0.230800 -0.799600
vn 0.152100 -0.826800 0.541600
vn -0.174100 0.768800 -0.615300
vn -0.662800 0.326400 -0.673900
vn -0.786500 0.421400 -0.451400
vn 0.398600 0.336800 0.853000
vn 0.529800 0.606800 -0.592500
vn 0.693900 0.410600 -0.591500
vn 0.838500 0.428600 0.336500
vn -0.755000 0.574200 0.316600
vn -0.938400 -0.213100 0.272100
vn 0.619400 0.457600 0.637900
vn 0.850400 0.184000 0.492900
vn -0.566000 -0.021600 -0.824100
vn -0.906100 -0.274900 -0.321600
vn -0.847000 -0.481800 0.224400
vn -0.184800 0.325600 0.927300
vn -0.355700 0.206900 0.911400
vn -0.937500 -0.229800 0.261400
vn -0.660300 -0.500100 0.560300
vn -0.505200 -0.818300 0.274200
vn 0.619500 0.752400 0.223800
vn 0.865400 0.369800 0.338200
vn 0.687600 -0.134000 -0.713600
vn -0.036800 0.371900 0.927600
vn -0.003200 0.485800 -0.874100
vn 0.435400 -0.050900 -0.898800
vn -0.335200 0.197200 0.921300
vn -0.319100 0.669800 -0.670500
vn -0.399700 0.113300 0.909600
vn -0.840400 0.422600 0.339300
vn 0.227000 0.505700 -0.832300
vn 0.235100 -0.422700 0.875200
vn 0.773800 -0.546500 0.320200
vn 0.440400 0.269900 0.856300
vn 0.735300 0.171000 0.655900
vn 0.254900 -0.172300 -0.951500
vn 0.939200 0.340600 -0.042900
vn 0.657700 -0.685200 -0.312800
vn 0.280900 0.547500 0.788200
vn -0.210500 -0.435400 0.875300
vn 0.076600 0.023700 0.996800
vn 0.969500 0.208800 -0.128400
s 1
f 165//1 176//2 63//3
f 161//4 37//5 149//6
f 142//7 5//8 67//9
f 21//10 70//11 60//12
f 118//13 143//14 171//15
f 107//16 116//17 153//18
f 119//19 142//7 45//20
f 105//21 10//22 48//23
f 98//24 27//25 150//26
f 96//27 9//28 69//29
f 65//30 175//31 160//32
f 56//33 135//34 88//35
f 129//36 126//37 30//38
f 43//39 8//40 155//41
f 17//42 34//43 32//44
f 158//45 103//46 96//27
f 11//47 102//48 65//30
f 7//49 32//44 34//43
f 142//7 119//19 5//8
f 128//50 152//51 111//52
f 97//53 54//54 124//55
f 141//56 56//33 88//35
f 33//57 30//38 78//58
f 127//59 83//60 148//61
f 12//62 23//63 43//39
f 100//64 21//10 38//65
f 44//66 65//30 160//32
f 69//29 33//57 168//67
f 30//38 42//68 129//36
f 150//26 6//69 95//70
f 103//46 42//68 77//71
f 157//72 2//73 118//13
f 11//47 41//74 134//75
f 9//28 130//76 69//29
f 113//77 114//78 88//35
f 138//79 25//80 110//81
f 39//82 159//83 73//84
f 140//85 73//84 6//69
f 68//86 104//87 109//88
f 28//89 57//90 133//91
f 47//92 130//76 173//93
f 40//94 74//95 75//96
f 51//97 99//98 163//99
f 40//94 32//44 7//49
f 146//100 63//3 60//12
f 29//101 115//102 146//100
f 96//27 121//103 19//104
f 117//105 84//106 165//1
f 64//107 112//108 79//109
f 132//110 105//21 48//23
f 87//111 55//112 62//113
f 78//58 158//45 168//67
f 155//41 101//114 66//115
f 140//85 6//69 27//25
f 35//116 156//117 18//118
f 131//119 149//6 71//120
f 29//101 38//65 115//102
f 157//72 118//13 174//121
f 22//122 45//20 81//123
f 139//124 108//125 54//54
f 151//126 21//10 60//12
f 75//96 172//127 40//94
f 94//128 120//129 124//55
f 154//130 152//51 1//131
f 36//132 138//79 35//116
f 97//53 170//133 92//134
f 26//135 159//83 112//108
f 105//21 132//110 58//136
f 90//137 55//112 16//138
f 121//103 103//46 77//71
f 128//50 135//34 56//33
f 34//43 95//70 74//95
f 35//116 113//77 156//117
f 175//31 92//134 55//112
f 57//90 144//139 161//4
f 89//140 82//141 80//142
f 17//42 95//70 34//43
f 84//106 10//22 105//21
f 49//143 16//138 137//144
f 74//95 95//70 26//135
f 63//3 125//145 76//146
f 70//11 21//10 100//64
f 6//69 26//135 95//70
f 118//13 171//15 174//121
f 11//47 46//147 41//74
f 77//71 151//126 60//12
f 19//104 9//28 96//27
f 78//58 126//37 158//45
f 19//104 83//60 20//148
f 113//77 135//34 156//117
f 159//83 39//82 28//89
f 123//149 81//123 127//59
f 138//79 140//85 98//24
f 96//27 103//46 121//103
f 43//39 4//150 14//151
f 52//152 93//153 72//154
f 174//121 86//155 157//72
f 170//133 110//81 55//112
f 5//8 47//92 173//93
f 77//71 30//38 151//126
f 161//4 144//139 37//5
f 133//91 159//83 28//89
f 75//96 74//95 23//63
f 99//98 66//115 101//114
f 43//39 66//115 12//62
f 174//121 162//156 86//155
f 12//62 172//127 23//63
f 96//27 168//67 158//45
f 70//11 100//64 31//157
f 132//110 152//51 154//130
f 6//69 159//83 26//135
f 160//32 175//31 51//97
f 32//44 25//80 17//42
f 122//158 84//106 117//105
f 176//2 77//71 60//12
f 143//14 37//5 171//15
f 90//137 16//138 49//143
f 102//48 11//47 167//159
f 7//49 34//43 74//95
f 82//141 18//118 156//117
f 82//141 13//160 18//118
f 8//40 106//161 155//41
f 83//60 127//59 20//148
f 31//157 100//64 38//65
f 20//148 68//86 109//88
f 137//144 16//138 87//111
f 17//42 150//26 95//70
f 108//125 85//162 54//54
f 122//158 10//22 84//106
f 131//119 71//120 143//14
f 52//152 145//163 166//164
f 117//105 119//19 45//20
f 56//33 1//131 152//51
f 141//56 53//165 85//162
f 165//1 63//3 76//146
f 45//20 93//153 81//123
f 110//81 32//44 62//113
f 110//81 25//80 32//44
f 69//29 151//126 33//57
f 166//164 9//28 104//87
f 147//166 24//167 15//168
f 147//166 15//168 80//142
f 97//53 124//55 120//129
f 174//121 144//139 136//169
f 54//54 97//53 139//124
f 3//170 35//116 94//128
f 63//3 146//100 125//145
f 150//26 17//42 98//24
f 61//171 13//160 89//140
f 27//25 98//24 140//85
f 122//158 45//20 22//122
f 24//167 73//84 164//172
f 21//10 125//145 91//173
f 86//155 111//52 132//110
f 65//30 44//66 46//147
f 126//37 42//68 158//45
f 153//18 131//119 8//40
f 37//5 144//139 171//15
f 9//28 19//104 104//87
f 98//24 17//42 25//80
f 93//153 45//20 72//154
f 64//107 116//17 112//108
f 106//161 8//40 131//119
f 113//77 88//35 135//34
f 121//103 77//71 41//74
f 159//83 6//69 73//84
f 173//93 130//76 9//28
f 164//172 73//84 140//85
f 46//147 83//60 41//74
f 18//118 140//85 36//132
f 140//85 18//118 13//160
f 134//75 176//2 105//21
f 165//1 84//106 105//21
f 106//161 131//119 143//14
f 39//82 147//166 28//89
f 112//108 50//174 26//135
f 49//143 40//94 12//62
f 40//94 7//49 74//95
f 19//104 121//103 41//74
f 106//161 169//175 155//41
f 25//80 138//79 98//24
f 176//2 41//74 77//71
f 134//75 167//159 11//47
f 150//26 27//25 6//69
f 5//8 173//93 145//163
f 62//113 55//112 110//81
f 145//163 52//152 67//9
f 91//173 38//65 21//10
f 140//85 138//79 36//132
f 145//163 173//93 166//164
f 21//10 151//126 69//29
f 11//47 65//30 46//147
f 112//108 116//17 107//16
f 67//9 52//152 72//154
f 13//160 164//172 140//85
f 142//7 72//154 45//20
f 106//161 143//14 118//13
f 16//138 55//112 87//111
f 85//162 108//125 141//56
f 147//166 73//84 24//167
f 172//127 12//62 40//94
f 130//76 21//10 69//29
f 173//93 9//28 166//164
f 42//68 103//46 158//45
f 46//147 148//61 83//60
f 126//37 78//58 30//38
f 49//143 12//62 51//97
f 10//22 2//73 157//72
f 51//97 163//99 160//32
f 159//83 133//91 79//109
f 52//152 68//86 20//148
f 175//31 90//137 51//97
f 1//131 58//136 154//130
f 60//12 29//101 146//100
f 90//137 49//143 51//97
f 115//102 91//173 125//145
f 35//116 120//129 94//128
f 76//146 119//19 165//1
f 108//125 102//48 167//159
f 78//58 168//67 33//57
f 52//152 166//164 104//87
f 23//63 172//127 75//96
f 58//136 1//131 141//56
f 110//81 120//129 138//79
f 38//65 91//173 115//102
f 2//73 10//22 118//13
f 122//158 22//122 169//175
f 125//145 130//76 47//92
f 4//150 50//174 107//16
f 76//146 5//8 119//19
f 40//94 62//113 32//44
f 50//174 4//150 74//95
f 56//33 152//51 128//50
f 141//56 108//125 167//159
f 149//6 153//18 116//17
f 170//133 120//129 110//81
f 77//71 42//68 30//38
f 122//158 117//105 45//20
f 151//126 30//38 33//57
f 23//63 4//150 43//39
f 87//111 62//113 40//94
f 160//32 123//149 44//66
f 169//175 22//122 155//41
f 113//77 3//170 114//78
f 133//91 64//107 79//109
f 128//50 111//52 135//34
f 116//17 64//107 149//6
f 28//89 147//166 80//142
f 31//157 38//65 29//101
f 146//100 115//102 125//145
f 156//117 135//34 59//176
f 29//101 70//11 31//157
f 154//130 58//136 132//110
f 55//112 92//134 170//133
f 35//116 138//79 120//129
f 65//30 108//125 175//31
f 163//99 123//149 160//32
f 61//171 89//140 80//142
f 141//56 167//159 58//136
f 80//142 162//156 136//169
f 61//171 164//172 13//160
f 127//59 148//61 123//149
f 129//36 42//68 126//37
f 118//13 10//22 122//158
f 118//13 122//158 106//161
f 167//159 105//21 58//136
f 111//52 86//155 162//156
f 4//150 107//16 14//151
f 65//30 102//48 108//125
f 162//156 59//176 111//52
f 157//72 48//23 10//22
f 107//16 50//174 112//108
f 139//124 92//134 175//31
f 139//124 175//31 108//125
f 43//39 14//151 8//40
f 70//11 29//101 60//12
f 79//109 112//108 159//83
f 155//41 22//122 101//114
f 50//174 74//95 26//135
f 97//53 92//134 139//124
f 134//75 41//74 176//2
f 19//104 109//88 104//87
f 119//19 117//105 165//1
f 51//97 12//62 99//98
f 35//116 3//170 113//77
f 148//61 46//147 44//66
f 12//62 66//115 99//98
f 125//145 47//92 76//146
f 63//3 176//2 60//12
f 114//78 3//170 124//55
f 114//78 124//55 53//165
f 24//167 164//172 61//171
f 54//54 85//162 53//165
f 170//133 97//53 120//129
f 28//89 80//142 136//169
f 18//118 36//132 35//116
f 132//110 48//23 86//155
f 82//141 89//140 13//160
f 171//15 144//139 174//121
f 5//8 76//146 47//92
f 149//6 37//5 71//120
f 148//61 44//66 123//149
f 175//31 55//112 90//137
f 83//60 19//104 41//74
f 22//122 81//123 101//114
f 124//55 54//54 53//165
f 111//52 59//176 135//34
f 80//142 15//168 61//171
f 93//153 20//148 127//59
f 73//84 147//166 39//82
f 124//55 3//170 94//128
f 136//169 162//156 174//121
f 53//165 88//35 114//78
f 109//88 19//104 20//148
f 161//4 149//6 64//107
f 141//56 1//131 56//33
f 80//142 59//176 162//156
f 40//94 137//144 87//111
f 105//21 176//2 165//1
f 111//52 152//51 132//110
f 61//171 15//168 24//167
f 40//94 49//143 137//144
f 52//152 20//148 93//153
f 4//150 23//63 74//95
f 134//75 105//21 167//159
f 57//90 28//89 136//169
f 107//16 8//40 14//151
f 169//175 106//161 122//158
f 68//86 52//152 104//87
f 107//16 153//18 8//40
f 5//8 145//163 67//9
f 88//35 53//165 141//56
f 59//176 82//141 156//117
f 153//18 149//6 131//119
f 123//149 101//114 81//123
f 80//142 82//141 59//176
f 144//139 57//90 136//169
f 43//39 155//41 66//115
f 163//99 99//98 101//114
f 127//59 81//123 93//153
f 161//4 64//107 133//91
f 163//99 101//114 123//149
f 86//155 48//23 157//72
f 57//90 161//4 133//91
f 71//120 37//5 143//14
f 72//154 142//7 67//9
f 21//10 130//76 125//145
f 168//67 96//27 69//29
